<svg width="183" height="38" viewBox="0 0 183 38" fill="none" xmlns="http://www.w3.org/2000/svg">
<path d="M53.584 27.168C52.352 27.168 51.248 26.968 50.272 26.568C49.296 26.168 48.512 25.576 47.92 24.792C47.344 24.008 47.04 23.064 47.008 21.96H51.376C51.44 22.584 51.656 23.064 52.024 23.4C52.392 23.72 52.872 23.88 53.464 23.88C54.072 23.88 54.552 23.744 54.904 23.472C55.256 23.184 55.432 22.792 55.432 22.296C55.432 21.88 55.288 21.536 55 21.264C54.728 20.992 54.384 20.768 53.968 20.592C53.568 20.416 52.992 20.216 52.24 19.992C51.152 19.656 50.264 19.32 49.576 18.984C48.888 18.648 48.296 18.152 47.8 17.496C47.304 16.84 47.056 15.984 47.056 14.928C47.056 13.36 47.624 12.136 48.76 11.256C49.896 10.36 51.376 9.912 53.2 9.912C55.056 9.912 56.552 10.36 57.688 11.256C58.824 12.136 59.432 13.368 59.512 14.952H55.072C55.04 14.408 54.84 13.984 54.472 13.68C54.104 13.36 53.632 13.2 53.056 13.2C52.56 13.2 52.16 13.336 51.856 13.608C51.552 13.864 51.4 14.24 51.4 14.736C51.4 15.28 51.656 15.704 52.168 16.008C52.68 16.312 53.48 16.64 54.568 16.992C55.656 17.36 56.536 17.712 57.208 18.048C57.896 18.384 58.488 18.872 58.984 19.512C59.48 20.152 59.728 20.976 59.728 21.984C59.728 22.944 59.48 23.816 58.984 24.6C58.504 25.384 57.8 26.008 56.872 26.472C55.944 26.936 54.848 27.168 53.584 27.168ZM74.8776 20.088C74.8776 20.472 74.8536 20.872 74.8056 21.288H65.5176C65.5816 22.12 65.8456 22.76 66.3096 23.208C66.7896 23.64 67.3736 23.856 68.0616 23.856C69.0856 23.856 69.7976 23.424 70.1976 22.56H74.5656C74.3416 23.44 73.9336 24.232 73.3416 24.936C72.7656 25.64 72.0376 26.192 71.1576 26.592C70.2776 26.992 69.2936 27.192 68.2056 27.192C66.8936 27.192 65.7256 26.912 64.7016 26.352C63.6776 25.792 62.8776 24.992 62.3016 23.952C61.7256 22.912 61.4376 21.696 61.4376 20.304C61.4376 18.912 61.7176 17.696 62.2776 16.656C62.8536 15.616 63.6536 14.816 64.6776 14.256C65.7016 13.696 66.8776 13.416 68.2056 13.416C69.5016 13.416 70.6536 13.688 71.6616 14.232C72.6696 14.776 73.4536 15.552 74.0136 16.56C74.5896 17.568 74.8776 18.744 74.8776 20.088ZM70.6776 19.008C70.6776 18.304 70.4376 17.744 69.9576 17.328C69.4776 16.912 68.8776 16.704 68.1576 16.704C67.4696 16.704 66.8856 16.904 66.4056 17.304C65.9416 17.704 65.6536 18.272 65.5416 19.008H70.6776ZM94.1307 13.464C95.7947 13.464 97.1147 13.968 98.0907 14.976C99.0827 15.984 99.5787 17.384 99.5787 19.176V27H95.4987V19.728C95.4987 18.864 95.2667 18.2 94.8027 17.736C94.3547 17.256 93.7307 17.016 92.9307 17.016C92.1307 17.016 91.4987 17.256 91.0347 17.736C90.5867 18.2 90.3627 18.864 90.3627 19.728V27H86.2827V19.728C86.2827 18.864 86.0507 18.2 85.5867 17.736C85.1387 17.256 84.5147 17.016 83.7147 17.016C82.9147 17.016 82.2827 17.256 81.8187 17.736C81.3707 18.2 81.1467 18.864 81.1467 19.728V27H77.0427V13.608H81.1467V15.288C81.5627 14.728 82.1067 14.288 82.7787 13.968C83.4507 13.632 84.2107 13.464 85.0587 13.464C86.0667 13.464 86.9627 13.68 87.7467 14.112C88.5467 14.544 89.1707 15.16 89.6187 15.96C90.0827 15.224 90.7147 14.624 91.5147 14.16C92.3147 13.696 93.1867 13.464 94.1307 13.464ZM101.633 20.28C101.633 18.904 101.889 17.696 102.401 16.656C102.929 15.616 103.641 14.816 104.537 14.256C105.433 13.696 106.433 13.416 107.537 13.416C108.481 13.416 109.305 13.608 110.009 13.992C110.729 14.376 111.281 14.88 111.665 15.504V13.608H115.769V27H111.665V25.104C111.265 25.728 110.705 26.232 109.985 26.616C109.281 27 108.457 27.192 107.513 27.192C106.425 27.192 105.433 26.912 104.537 26.352C103.641 25.776 102.929 24.968 102.401 23.928C101.889 22.872 101.633 21.656 101.633 20.28ZM111.665 20.304C111.665 19.28 111.377 18.472 110.801 17.88C110.241 17.288 109.553 16.992 108.737 16.992C107.921 16.992 107.225 17.288 106.649 17.88C106.089 18.456 105.809 19.256 105.809 20.28C105.809 21.304 106.089 22.12 106.649 22.728C107.225 23.32 107.921 23.616 108.737 23.616C109.553 23.616 110.241 23.32 110.801 22.728C111.377 22.136 111.665 21.328 111.665 20.304ZM122.842 15.84C123.322 15.104 123.922 14.528 124.642 14.112C125.362 13.68 126.162 13.464 127.042 13.464V17.808H125.914C124.89 17.808 124.122 18.032 123.61 18.48C123.098 18.912 122.842 19.68 122.842 20.784V27H118.738V13.608H122.842V15.84ZM144.82 10.152L138.844 27H133.708L127.732 10.152H132.1L136.276 22.872L140.476 10.152H144.82ZM159.159 20.088C159.159 20.472 159.135 20.872 159.087 21.288H149.799C149.863 22.12 150.127 22.76 150.591 23.208C151.071 23.64 151.655 23.856 152.343 23.856C153.367 23.856 154.079 23.424 154.479 22.56H158.847C158.623 23.44 158.215 24.232 157.623 24.936C157.047 25.64 156.319 26.192 155.439 26.592C154.559 26.992 153.575 27.192 152.487 27.192C151.175 27.192 150.007 26.912 148.983 26.352C147.959 25.792 147.159 24.992 146.583 23.952C146.007 22.912 145.719 21.696 145.719 20.304C145.719 18.912 145.999 17.696 146.559 16.656C147.135 15.616 147.935 14.816 148.959 14.256C149.983 13.696 151.159 13.416 152.487 13.416C153.783 13.416 154.935 13.688 155.943 14.232C156.951 14.776 157.735 15.552 158.295 16.56C158.871 17.568 159.159 18.744 159.159 20.088ZM154.959 19.008C154.959 18.304 154.719 17.744 154.239 17.328C153.759 16.912 153.159 16.704 152.439 16.704C151.751 16.704 151.167 16.904 150.687 17.304C150.223 17.704 149.935 18.272 149.823 19.008H154.959ZM166.772 27.192C165.604 27.192 164.564 26.992 163.652 26.592C162.74 26.192 162.02 25.648 161.492 24.96C160.964 24.256 160.668 23.472 160.604 22.608H164.66C164.708 23.072 164.924 23.448 165.308 23.736C165.692 24.024 166.164 24.168 166.724 24.168C167.236 24.168 167.628 24.072 167.9 23.88C168.188 23.672 168.332 23.408 168.332 23.088C168.332 22.704 168.132 22.424 167.732 22.248C167.332 22.056 166.684 21.848 165.788 21.624C164.828 21.4 164.028 21.168 163.388 20.928C162.748 20.672 162.196 20.28 161.732 19.752C161.268 19.208 161.036 18.48 161.036 17.568C161.036 16.8 161.244 16.104 161.66 15.48C162.092 14.84 162.716 14.336 163.532 13.968C164.364 13.6 165.348 13.416 166.484 13.416C168.164 13.416 169.484 13.832 170.444 14.664C171.42 15.496 171.98 16.6 172.124 17.976H168.332C168.268 17.512 168.06 17.144 167.708 16.872C167.372 16.6 166.924 16.464 166.364 16.464C165.884 16.464 165.516 16.56 165.26 16.752C165.004 16.928 164.876 17.176 164.876 17.496C164.876 17.88 165.076 18.168 165.476 18.36C165.892 18.552 166.532 18.744 167.396 18.936C168.388 19.192 169.196 19.448 169.82 19.704C170.444 19.944 170.988 20.344 171.452 20.904C171.932 21.448 172.18 22.184 172.196 23.112C172.196 23.896 171.972 24.6 171.524 25.224C171.092 25.832 170.46 26.312 169.628 26.664C168.812 27.016 167.86 27.192 166.772 27.192ZM182.171 23.52V27H180.083C178.595 27 177.435 26.64 176.603 25.92C175.771 25.184 175.355 23.992 175.355 22.344V17.016H173.723V13.608H175.355V10.344H179.459V13.608H182.147V17.016H179.459V22.392C179.459 22.792 179.555 23.08 179.747 23.256C179.939 23.432 180.259 23.52 180.707 23.52H182.171Z" fill="#0584D6"/>
<circle cx="19" cy="19" r="19" fill="#0584D6"/>
<path d="M19.0604 23.9154C22.9136 23.9154 26.0371 20.7958 26.0371 16.9476C26.0371 13.0994 22.9136 9.97978 19.0604 9.97978C15.2073 9.97978 12.0837 13.0994 12.0837 16.9476C12.0837 20.7958 15.2073 23.9154 19.0604 23.9154Z" fill="#FFD601"/>
<path d="M19.1952 20.2686C18.5663 20.2686 18.0082 20.1665 17.5208 19.9624C17.0413 19.7583 16.66 19.4756 16.377 19.1145C16.094 18.7533 15.9329 18.3451 15.8936 17.8897H18.4052C18.4366 18.086 18.5192 18.2312 18.6528 18.3254C18.7943 18.4197 18.9712 18.4668 19.1834 18.4668C19.3171 18.4668 19.4232 18.4393 19.5018 18.3843C19.5804 18.3215 19.6197 18.2469 19.6197 18.1606C19.6197 18.0114 19.5372 17.9054 19.3721 17.8426C19.207 17.7798 18.9279 17.7091 18.5349 17.6306C18.0553 17.5364 17.6584 17.4343 17.3439 17.3244C17.0373 17.2145 16.7661 17.0261 16.5303 16.7592C16.3023 16.4922 16.1883 16.1232 16.1883 15.6522C16.1883 15.2439 16.2945 14.8749 16.5067 14.5452C16.7268 14.2076 17.0491 13.9446 17.4736 13.7561C17.8981 13.5599 18.413 13.4617 19.0183 13.4617C19.9145 13.4617 20.6141 13.6815 21.1172 14.1212C21.6282 14.5609 21.9348 15.134 22.037 15.8406H19.714C19.6747 15.66 19.5922 15.5226 19.4664 15.4284C19.3406 15.3263 19.1716 15.2753 18.9594 15.2753C18.8257 15.2753 18.7235 15.3028 18.6528 15.3577C18.582 15.4049 18.5467 15.4794 18.5467 15.5815C18.5467 15.715 18.6292 15.817 18.7943 15.8877C18.9594 15.9505 19.2227 16.0172 19.5843 16.0879C20.0639 16.1821 20.4687 16.2881 20.7989 16.4059C21.129 16.5236 21.416 16.7278 21.6596 17.0182C21.9033 17.3009 22.0252 17.6934 22.0252 18.1959C22.0252 18.5885 21.9112 18.9417 21.6832 19.2558C21.4553 19.5698 21.1251 19.8171 20.6927 19.9977C20.2682 20.1783 19.7691 20.2686 19.1952 20.2686Z" fill="white"/>
<path fill-rule="evenodd" clip-rule="evenodd" d="M27.216 17.6333C27.0588 21.1663 24.3992 23.3581 23.089 24.0123C25.2115 23.6198 27.0553 22.3706 27.5108 21.4607C27.9039 20.6756 29.1813 19.0727 29.9674 18.2222C29.9674 17.2226 29.6553 16.5347 29.2961 15.7428C29.1615 15.4461 29.0204 15.1349 28.8865 14.7873C28.6597 14.4099 28.4329 13.4517 28.2061 12.4936C28.1381 12.2061 28.0701 11.9187 28.0021 11.6469C27.7811 10.7637 27.478 10.8945 27.216 11.1562C26.4299 11.9413 26.6265 13.1844 26.823 13.7078C27.2947 14.5714 27.2815 16.6847 27.216 17.6333ZM19.0002 27.5542C18.2464 26.5575 17.0665 25.5829 15.3045 25.0918C13.896 24.7647 10.804 23.659 9.70345 21.8532C9.0156 20.5774 7.1879 18.0062 5.37986 17.9277C4.72478 17.7969 3.65043 17.8492 4.59376 19.1054C5.37986 20.2503 6.97172 22.6776 7.05033 23.2272C7.54165 24.4375 9.09421 27.1135 11.3739 28.1341C12.7567 28.8533 15.994 30.0989 19.0002 30.0148C22.0064 30.0989 25.2437 28.8533 26.6265 28.1341C28.9062 27.1135 30.4587 24.4375 30.9501 23.2272C31.0287 22.6776 32.6205 20.2503 33.4066 19.1054C34.35 17.8492 33.2756 17.7969 32.6205 17.9277C30.8125 18.0062 28.9848 20.5774 28.2969 21.8532C27.1964 23.659 24.1044 24.7647 22.6959 25.0918C20.9339 25.5829 19.754 26.5575 19.0002 27.5542ZM14.9114 24.0123C13.6012 23.3581 10.9416 21.1663 10.7843 17.6333C10.7188 16.6847 10.7057 14.5714 11.1774 13.7078C11.3739 13.1844 11.5704 11.9413 10.7843 11.1562C10.5223 10.8945 10.2193 10.7637 9.99824 11.6469C9.93022 11.9187 9.86218 12.2061 9.79416 12.4936C9.56739 13.4517 9.34064 14.4099 9.11386 14.7873C8.97999 15.1349 8.83883 15.4461 8.70428 15.7428C8.34503 16.5347 8.03297 17.2226 8.03297 18.2222C8.81907 19.0727 10.0965 20.6756 10.4896 21.4607C10.9451 22.3706 12.7889 23.6198 14.9114 24.0123Z" fill="white"/>
</svg>
