<svg width="40" height="40" viewBox="0 0 40 40" fill="none" xmlns="http://www.w3.org/2000/svg">
<circle cx="8.5" cy="8.5" r="8.5" fill="#FFD601"/>
<path d="M9.80592 9.80591C8.33338 11.2742 7.16549 13.019 6.36935 14.9401C5.57322 16.8611 5.16452 18.9206 5.16676 21.0001C5.16676 25.3701 6.94009 29.3284 9.80592 32.1942L12.0384 29.9617C10.8581 28.7878 9.92284 27.391 9.28682 25.8526C8.65079 24.3142 8.32672 22.6648 8.33342 21.0001C8.33342 17.5009 9.74259 14.3184 12.0384 12.0384L9.80592 9.80591ZM32.1943 9.80591L29.9618 12.0384C31.1408 13.2133 32.0753 14.6102 32.7113 16.1484C33.3472 17.6866 33.672 19.3356 33.6668 21.0001C33.6668 24.5151 32.2576 27.6817 29.9618 29.9617L32.1943 32.1942C33.6668 30.7259 34.8347 28.9811 35.6308 27.0601C36.427 25.139 36.8357 23.0796 36.8334 21.0001C36.8334 16.6301 35.0601 12.6717 32.1943 9.80591ZM14.2868 14.2867C13.4029 15.167 12.7018 16.2133 12.2235 17.3653C11.7453 18.5174 11.4995 19.7527 11.5001 21.0001C11.5001 23.6126 12.5609 25.9876 14.2868 27.7134L16.5193 25.4809C15.9306 24.8928 15.4639 24.1942 15.146 23.4253C14.8281 22.6563 14.6652 21.8322 14.6668 21.0001C14.6668 19.2426 15.3793 17.6592 16.5193 16.5192L14.2868 14.2867ZM27.7134 14.2867L25.4809 16.5192C26.0696 17.1073 26.5363 17.8059 26.8542 18.5749C27.1721 19.3438 27.3349 20.168 27.3334 21.0001C27.3334 22.7576 26.6209 24.3409 25.4809 25.4809L27.7134 27.7134C28.5972 26.8331 29.2984 25.7869 29.7766 24.6348C30.2549 23.4827 30.5007 22.2475 30.5001 21.0001C30.5001 18.3876 29.4393 16.0126 27.7134 14.2867V14.2867ZM21.0001 17.8334C20.1602 17.8334 19.3548 18.167 18.7609 18.7609C18.1671 19.3548 17.8334 20.1602 17.8334 21.0001C17.8334 21.8399 18.1671 22.6454 18.7609 23.2392C19.3548 23.8331 20.1602 24.1667 21.0001 24.1667C21.8399 24.1667 22.6454 23.8331 23.2393 23.2392C23.8331 22.6454 24.1668 21.8399 24.1668 21.0001C24.1668 20.1602 23.8331 19.3548 23.2393 18.7609C22.6454 18.167 21.8399 17.8334 21.0001 17.8334Z" fill="#0071BC"/>
</svg>
