<svg width="41" height="38" viewBox="0 0 41 38" fill="none" xmlns="http://www.w3.org/2000/svg">
<circle cx="8.5" cy="8.5" r="8.5" fill="#FFD601"/>
<path d="M36.7777 13.7222H28.3333C27.7734 13.7222 27.2364 13.9446 26.8405 14.3405C26.4446 14.7364 26.2222 15.2734 26.2222 15.8333V31.6666C26.2222 32.2265 26.4446 32.7635 26.8405 33.1594C27.2364 33.5553 27.7734 33.7777 28.3333 33.7777H36.7777C37.3376 33.7777 37.8746 33.5553 38.2705 33.1594C38.6664 32.7635 38.8888 32.2265 38.8888 31.6666V15.8333C38.8888 15.2734 38.6664 14.7364 38.2705 14.3405C37.8746 13.9446 37.3376 13.7222 36.7777 13.7222ZM36.7777 15.8333V27.4444H28.3333V15.8333H36.7777ZM28.3333 31.6666V29.1333H36.7777V31.6666H28.3333Z" fill="#0071BC"/>
<path d="M24.1111 23.2222H7.22219V6.33328H32.5555V11.6111H34.6666V6.33328C34.6666 5.77338 34.4442 5.23641 34.0483 4.8405C33.6524 4.44459 33.1154 4.22217 32.5555 4.22217H7.22219C6.66229 4.22217 6.12532 4.44459 5.72941 4.8405C5.3335 5.23641 5.11108 5.77338 5.11108 6.33328V23.2222C5.11108 23.7821 5.3335 24.319 5.72941 24.7149C6.12532 25.1109 6.66229 25.3333 7.22219 25.3333H24.1111V23.2222Z" fill="#0071BC"/>
<path d="M24.111 27.4443H12.4999C12.2199 27.4443 11.9515 27.5555 11.7535 27.7535C11.5555 27.9515 11.4443 28.2199 11.4443 28.4999C11.4443 28.7798 11.5555 29.0483 11.7535 29.2463C11.9515 29.4442 12.2199 29.5554 12.4999 29.5554H24.111V27.4443Z" fill="#0071BC"/>
</svg>
