<svg width="20" height="20" viewBox="0 0 20 20" fill="none" xmlns="http://www.w3.org/2000/svg">
<g id="instagram">
<path id="Shape" fill-rule="evenodd" clip-rule="evenodd" d="M5.95811 0H14.0419C17.3272 0 20 2.67279 20 5.95811V14.0419C20 17.3272 17.3272 20 14.0419 20H5.95811C2.67279 20 0 17.3272 0 14.0419V5.95811C0 2.67279 2.67279 0 5.95811 0ZM14.042 17.988C16.2213 17.988 17.9881 16.2212 17.9881 14.0419V5.9581C17.9881 3.77871 16.2213 2.01199 14.042 2.01199H5.95817C3.77881 2.01199 2.01206 3.77871 2.01206 5.9581V14.0419C2.01206 16.2212 3.77881 17.988 5.95817 17.988H14.042Z" fill="url(#paint0_linear)"/>
<path id="Shape_2" fill-rule="evenodd" clip-rule="evenodd" d="M4.82739 10.0001C4.82739 7.14787 7.14787 4.82739 10.0001 4.82739C12.8523 4.82739 15.1728 7.14783 15.1728 10.0001C15.1728 12.8523 12.8523 15.1728 10.0001 15.1728C7.14787 15.1728 4.82739 12.8523 4.82739 10.0001ZM6.83939 10C6.83939 11.7457 8.25447 13.1608 10.0001 13.1608C11.7457 13.1608 13.1608 11.7456 13.1608 10C13.1608 8.25441 11.7457 6.83933 10.0001 6.83933C8.25451 6.83933 6.83939 8.25441 6.83939 10Z" fill="url(#paint1_linear)"/>
<path id="Oval" d="M15.1826 6.10568C15.8672 6.10568 16.4221 5.55075 16.4221 4.8662C16.4221 4.18165 15.8672 3.62671 15.1826 3.62671C14.4981 3.62671 13.9431 4.18165 13.9431 4.8662C13.9431 5.55075 14.4981 6.10568 15.1826 6.10568Z" fill="url(#paint2_linear)"/>
</g>
<defs>
<linearGradient id="paint0_linear" x1="19.8932" y1="19.9418" x2="19.8932" y2="0.155343" gradientUnits="userSpaceOnUse">
<stop stop-color="#E09B3D"/>
<stop offset="0.3" stop-color="#C74C4D"/>
<stop offset="0.6" stop-color="#C21975"/>
<stop offset="1" stop-color="#7024C4"/>
</linearGradient>
<linearGradient id="paint1_linear" x1="19.8934" y1="19.9419" x2="19.8934" y2="0.155448" gradientUnits="userSpaceOnUse">
<stop stop-color="#E09B3D"/>
<stop offset="0.3" stop-color="#C74C4D"/>
<stop offset="0.6" stop-color="#C21975"/>
<stop offset="1" stop-color="#7024C4"/>
</linearGradient>
<linearGradient id="paint2_linear" x1="25.0758" y1="19.9419" x2="25.0758" y2="0.155418" gradientUnits="userSpaceOnUse">
<stop stop-color="#E09B3D"/>
<stop offset="0.3" stop-color="#C74C4D"/>
<stop offset="0.6" stop-color="#C21975"/>
<stop offset="1" stop-color="#7024C4"/>
</linearGradient>
</defs>
</svg>
