<svg width="40" height="40" viewBox="0 0 40 40" fill="none" xmlns="http://www.w3.org/2000/svg">
<circle cx="8.5" cy="8.5" r="8.5" fill="#FFD601"/>
<path d="M21 23.375C19.8257 23.375 18.6777 23.0268 17.7013 22.3744C16.7249 21.7219 15.9639 20.7946 15.5145 19.7097C15.0651 18.6247 14.9475 17.4309 15.1766 16.2792C15.4057 15.1274 15.9712 14.0694 16.8016 13.2391C17.6319 12.4087 18.6899 11.8432 19.8417 11.6141C20.9934 11.385 22.1873 11.5026 23.2722 11.952C24.3571 12.4014 25.2844 13.1624 25.9369 14.1388C26.5893 15.1152 26.9375 16.2632 26.9375 17.4375C26.9356 19.0116 26.3095 20.5208 25.1964 21.6339C24.0833 22.747 22.5741 23.3731 21 23.375V23.375ZM21 13.875C20.2954 13.875 19.6066 14.0839 19.0208 14.4754C18.4349 14.8668 17.9783 15.4232 17.7087 16.0742C17.439 16.7252 17.3685 17.4415 17.506 18.1325C17.6434 18.8236 17.9827 19.4583 18.4809 19.9566C18.9792 20.4548 19.6139 20.7941 20.305 20.9316C20.9961 21.069 21.7124 20.9985 22.3633 20.7288C23.0143 20.4592 23.5707 20.0026 23.9621 19.4167C24.3536 18.8309 24.5625 18.1421 24.5625 17.4375C24.5616 16.493 24.1859 15.5874 23.518 14.9195C22.8501 14.2516 21.9445 13.8759 21 13.875V13.875Z" fill="#0071BC"/>
<path d="M21 37.625L10.9823 25.8106C10.8431 25.6332 10.7053 25.4546 10.569 25.275C8.8578 23.0209 7.93337 20.2676 7.93751 17.4375C7.93751 13.9731 9.31374 10.6506 11.7634 8.20092C14.2131 5.75122 17.5356 4.375 21 4.375C24.4644 4.375 27.7869 5.75122 30.2366 8.20092C32.6863 10.6506 34.0625 13.9731 34.0625 17.4375C34.0667 20.2663 33.1426 23.0183 31.4322 25.2714L31.431 25.275C31.431 25.275 31.0748 25.7429 31.0213 25.8058L21 37.625ZM12.4643 23.8441C12.4666 23.8441 12.7421 24.2098 12.8051 24.2882L21 33.9533L29.2056 24.2751C29.2579 24.2098 29.5358 23.8417 29.537 23.8405C30.9348 21.9988 31.6903 19.7496 31.6875 17.4375C31.6875 14.603 30.5615 11.8846 28.5572 9.8803C26.5529 7.876 23.8345 6.75 21 6.75C18.1655 6.75 15.4471 7.876 13.4428 9.8803C11.4385 11.8846 10.3125 14.603 10.3125 17.4375C10.31 19.751 11.0663 22.0015 12.4655 23.8441H12.4643Z" fill="#0071BC"/>
</svg>
