<svg width="40" height="40" viewBox="0 0 40 40" fill="none" xmlns="http://www.w3.org/2000/svg">
<circle cx="8.5" cy="8.5" r="8.5" fill="#FFD601"/>
<path d="M23.1654 15.2852L24.3168 14.9948L23.7359 12.6919L22.5845 12.9823C20.2228 13.5816 18.0744 14.8262 16.3796 16.5767C14.6848 18.3273 13.5105 20.5149 12.988 22.8947L12.7351 24.055L15.0556 24.5607L15.3084 23.4004C15.7418 21.4545 16.7051 19.6664 18.0918 18.2342C19.4786 16.8019 21.2345 15.7813 23.1654 15.2852Z" fill="#0071BC"/>
<path d="M28.9877 12.9748C27.5114 7.34947 22.3837 3.1875 16.302 3.1875C9.07052 3.1875 3.1875 9.07052 3.1875 16.302C3.1875 22.4337 7.41797 27.5953 13.1131 29.023C13.8491 31.8276 15.4934 34.3093 17.7891 36.0804C20.0848 37.8515 22.9025 38.8123 25.802 38.8125C33.0332 38.8125 38.9164 32.9295 38.9164 25.6984C38.9158 19.6693 34.778 14.4195 28.9877 12.9748V12.9748ZM5.5625 16.302C5.5625 10.38 10.38 5.5625 16.302 5.5625C22.2239 5.5625 27.0414 10.38 27.0414 16.302C27.0414 22.2239 22.2238 27.0414 16.302 27.0414C10.3801 27.0414 5.5625 22.2232 5.5625 16.302ZM25.802 36.4375C21.2797 36.4375 17.2512 33.5538 15.7199 29.4022C15.9128 29.4107 16.1068 29.4158 16.302 29.4158C17.1162 29.4159 17.9287 29.3402 18.7289 29.1897L25.9745 36.4353C25.9168 36.4362 25.8593 36.4375 25.802 36.4375V36.4375ZM28.8841 35.986L21.3162 28.4185C22.4839 27.9329 23.5754 27.2811 24.5567 26.4834L32.3087 34.2354C31.282 35.0208 30.1216 35.6138 28.8837 35.986H28.8841ZM34.0275 32.5948L26.2585 24.8265C27.1093 23.8347 27.8075 22.7215 28.33 21.5238L35.9677 29.1614C35.5383 30.4159 34.8802 31.58 34.0268 32.5948H34.0275ZM36.5208 26.355L29.1419 18.9762C29.3248 18.0964 29.4168 17.2002 29.4166 16.3017C29.4166 16.0578 29.4091 15.8157 29.3961 15.5753C31.4848 16.3211 33.2923 17.6939 34.5713 19.5059C35.8503 21.3179 36.5384 23.4808 36.5416 25.6987C36.5408 25.9189 36.5333 26.1377 36.5201 26.355H36.5208Z" fill="#0071BC"/>
</svg>
