<svg width="70" height="70" viewBox="0 0 70 70" fill="none" xmlns="http://www.w3.org/2000/svg">
<circle cx="34.9998" cy="35" r="35" fill="#DDF1FF"/>
<circle cx="24.4998" cy="24.5" r="8.5" fill="#FFD601"/>
<path d="M21.4998 23.75V26H46.2498V44H30.4998V46.25H50.7498V44H48.4998V23.75H21.4998ZM26.002 27.125C24.8096 27.1291 23.6672 27.6045 22.8238 28.4475C21.9804 29.2904 21.5045 30.4326 21.4998 31.625C21.4998 34.0989 23.5293 36.125 26.002 36.125C27.1938 36.1203 28.3354 35.6446 29.1779 34.8016C30.0205 33.9587 30.4956 32.8168 30.4998 31.625C30.4998 29.1534 28.4725 27.125 26.002 27.125ZM32.7498 28.25V30.5H38.3748V28.25H32.7498ZM40.6248 28.25V30.5H43.9998V28.25H40.6248ZM26.002 29.375C27.2553 29.375 28.2498 30.3684 28.2498 31.625C28.2498 32.885 27.2564 33.875 26.002 33.875C24.742 33.875 23.7498 32.885 23.7498 31.625C23.7498 30.3684 24.7431 29.375 26.002 29.375ZM32.7498 32.75V35H43.9998V32.75H32.7498ZM21.4998 37.25V46.25H23.7498V39.5H27.1248V46.25H29.3748V40.2403L31.6968 41.4688C32.3549 41.8175 33.1458 41.8164 33.8028 41.4688V41.471L37.774 39.3706L36.7244 37.3794L32.752 39.4798L29.269 37.6415C28.7829 37.3847 28.2415 37.2503 27.6918 37.25H21.4998Z" fill="#0071BC"/>
</svg>
