<svg width="40" height="40" viewBox="0 0 40 40" fill="none" xmlns="http://www.w3.org/2000/svg">
<circle cx="8.5" cy="8.5" r="8.5" fill="#FFD601"/>
<path d="M24.5625 30.5H29.3125V35.25H24.5625V30.5Z" fill="#0071BC"/>
<path d="M32.875 30.5H37.625V35.25H32.875V30.5Z" fill="#0071BC"/>
<path d="M24.5625 22.1875H29.3125V26.9375H24.5625V22.1875Z" fill="#0071BC"/>
<path d="M32.875 22.1875H37.625V26.9375H32.875V22.1875Z" fill="#0071BC"/>
<path d="M22.1875 30.5H6.75V13.875H35.25V19.8125H37.625V13.875C37.6244 13.2453 37.3739 12.6416 36.9287 12.1963C36.4834 11.7511 35.8797 11.5006 35.25 11.5H28.125V6.75C28.1244 6.1203 27.8739 5.51658 27.4287 5.07132C26.9834 4.62605 26.3797 4.37563 25.75 4.375H16.25C15.6203 4.37563 15.0166 4.62605 14.5713 5.07132C14.1261 5.51658 13.8756 6.1203 13.875 6.75V11.5H6.75C6.1203 11.5006 5.51658 11.7511 5.07132 12.1963C4.62605 12.6416 4.37563 13.2453 4.375 13.875V30.5C4.37563 31.1297 4.62605 31.7334 5.07132 32.1787C5.51658 32.6239 6.1203 32.8744 6.75 32.875H22.1875V30.5ZM16.25 6.75H25.75V11.5H16.25V6.75Z" fill="#0071BC"/>
</svg>
