<svg width="70" height="70" viewBox="0 0 70 70" fill="none" xmlns="http://www.w3.org/2000/svg">
<circle cx="34.9998" cy="35" r="35" fill="#DDF1FF"/>
<circle cx="24.4998" cy="24.5" r="8.5" fill="#FFD601"/>
<path d="M43.9998 33.5H25.9998C25.2041 33.5 24.441 33.8161 23.8784 34.3787C23.3158 34.9413 22.9998 35.7044 22.9998 36.5V48.5C22.9998 49.2956 23.3158 50.0587 23.8784 50.6213C24.441 51.1839 25.2041 51.5 25.9998 51.5H43.9998C44.7954 51.5 45.5585 51.1839 46.1211 50.6213C46.6837 50.0587 46.9998 49.2956 46.9998 48.5V36.5C46.9998 35.7044 46.6837 34.9413 46.1211 34.3787C45.5585 33.8161 44.7954 33.5 43.9998 33.5ZM43.9998 48.5H25.9998V42.5H43.9998V48.5ZM43.9998 39.5H25.9998V36.5H43.9998V39.5ZM42.4998 24.5V32H40.2498V26.75H31.8198L35.4498 30.395L33.8598 32L27.4998 25.625L33.8598 19.25L35.4498 20.855L31.8198 24.5H42.4998Z" fill="#0071BC"/>
</svg>
