<svg width="70" height="70" viewBox="0 0 70 70" fill="none" xmlns="http://www.w3.org/2000/svg">
<circle cx="34.9998" cy="35" r="35" fill="#DDF1FF"/>
<g clip-path="url(#clip0)">
<circle cx="24.4998" cy="24.5" r="8.5" fill="#FFD601"/>
<path d="M45.6048 24.395L43.4898 26.51C45.7377 28.7637 47 31.8169 46.9998 35C46.9998 41.63 41.6298 47 34.9998 47C28.3698 47 22.9998 41.63 22.9998 35C22.9998 28.88 27.5748 23.84 33.4998 23.105V26.135C29.2398 26.855 25.9998 30.545 25.9998 35C25.9998 39.965 30.0348 44 34.9998 44C39.9648 44 43.9998 39.965 43.9998 35C43.9998 32.51 42.9948 30.26 41.3598 28.64L39.2448 30.755C40.3248 31.85 40.9998 33.35 40.9998 35C40.9998 38.315 38.3148 41 34.9998 41C31.6848 41 28.9998 38.315 28.9998 35C28.9998 32.21 30.9198 29.885 33.4998 29.21V32.42C32.5998 32.945 31.9998 33.89 31.9998 35C31.9998 36.65 33.3498 38 34.9998 38C36.6498 38 37.9998 36.65 37.9998 35C37.9998 33.89 37.3998 32.93 36.4998 32.42V20H34.9998C26.7198 20 19.9998 26.72 19.9998 35C19.9998 43.28 26.7198 50 34.9998 50C43.2798 50 49.9998 43.28 49.9998 35C49.9998 30.86 48.3198 27.11 45.6048 24.395Z" fill="#0071BC"/>
</g>
<defs>
<clipPath id="clip0">
<rect width="36" height="36" fill="white" transform="translate(16.9998 17)"/>
</clipPath>
</defs>
</svg>
