<svg width="40" height="40" viewBox="0 0 40 40" fill="none" xmlns="http://www.w3.org/2000/svg">
<circle cx="8.5" cy="8.5" r="8.5" fill="#FFD601"/>
<path d="M30.5001 5.16675C30.92 5.16675 31.3227 5.33356 31.6197 5.6305C31.9166 5.92743 32.0834 6.33016 32.0834 6.75008V19.4167H28.9167V8.33342H13.0834V33.6668H19.4167V36.8334H11.5001C11.0802 36.8334 10.6774 36.6666 10.3805 36.3697C10.0836 36.0727 9.91675 35.67 9.91675 35.2501V6.75008C9.91675 6.33016 10.0836 5.92743 10.3805 5.6305C10.6774 5.33356 11.0802 5.16675 11.5001 5.16675H30.5001ZM25.7501 21.0001C26.8669 20.9999 27.9638 21.2951 28.9298 21.8556C29.8957 22.4161 30.6962 23.2221 31.2502 24.1918C31.8042 25.1615 32.0919 26.2604 32.0842 27.3772C32.0765 28.4939 31.7736 29.5888 31.2062 30.5507L34.7054 34.0499L32.4682 36.2903L28.9658 32.7912C28.1268 33.2851 27.1852 33.579 26.2142 33.6499C25.2432 33.7209 24.2689 33.567 23.367 33.2002C22.4651 32.8335 21.6599 32.2637 21.0139 31.5352C20.368 30.8067 19.8987 29.9391 19.6426 28.9998C19.3864 28.0605 19.3502 27.0748 19.5369 26.1192C19.7235 25.1637 20.128 24.264 20.7188 23.4902C21.3096 22.7163 22.0709 22.0891 22.9435 21.6572C23.8161 21.2254 24.7765 21.0005 25.7501 21.0001V21.0001ZM25.7501 24.1667C24.9102 24.1667 24.1048 24.5004 23.5109 25.0942C22.917 25.6881 22.5834 26.4936 22.5834 27.3334C22.5834 28.1733 22.917 28.9787 23.5109 29.5726C24.1048 30.1665 24.9102 30.5001 25.7501 30.5001C26.5899 30.5001 27.3954 30.1665 27.9893 29.5726C28.5831 28.9787 28.9167 28.1733 28.9167 27.3334C28.9167 26.4936 28.5831 25.6881 27.9893 25.0942C27.3954 24.5004 26.5899 24.1667 25.7501 24.1667Z" fill="#0071BC"/>
</svg>
