<svg width="20" height="16" viewBox="0 0 20 16" fill="none" xmlns="http://www.w3.org/2000/svg">
<g id="youtube">
<path id="Path" d="M19.7931 3.34492C19.7931 3.34492 19.5862 1.83089 19 1.16192C18.2414 0.281675 17.3793 0.281675 17 0.246456C14.2069 0.0352194 10 0 10 0C10 0 5.79309 0.0352194 3 0.246456C2.6207 0.281675 1.75863 0.316895 1 1.16192C0.379297 1.83093 0.206914 3.34492 0.206914 3.34492C0.206914 3.34492 0 5.14063 0 6.93634V8.59121C0 10.3869 0.206914 12.1474 0.206914 12.1474C0.206914 12.1474 0.413828 13.6614 1 14.3304C1.75863 15.2107 2.75863 15.1754 3.20691 15.2811C4.79309 15.4571 10 15.4923 10 15.4923C10 15.4923 14.2069 15.4923 17 15.2458C17.3793 15.2106 18.2414 15.1754 19 14.3304C19.5862 13.6614 19.7931 12.1474 19.7931 12.1474C19.7931 12.1474 20 10.3517 20 8.59117V6.9363C20 5.14063 19.7931 3.34492 19.7931 3.34492Z" fill="#D8362A"/>
<path id="Path_2" d="M7.58618 4.18994V11.8305L14.1379 8.09825L7.58618 4.18994Z" fill="white"/>
</g>
</svg>
